<svg width="24" height="24" viewBox="0 0 24 24" fill="none" xmlns="http://www.w3.org/2000/svg">
<path d="M10.0703 2.82375L3.14027 8.37374C2.36027 8.99374 1.86027 10.3038 2.03027 11.2838L3.36027 19.2437C3.60027 20.6637 4.96026 21.8137 6.40026 21.8137H17.6003C19.0303 21.8137 20.4003 20.6537 20.6403 19.2437L21.9703 11.2838C22.1303 10.3038 21.6303 8.99374 20.8603 8.37374L13.9303 2.83376C12.8603 1.97376 11.1303 1.97375 10.0703 2.82375Z" stroke="#7C7C7C" stroke-width="1.5" stroke-linecap="round" stroke-linejoin="round"/>
<path d="M12 15.5C13.3807 15.5 14.5 14.3807 14.5 13C14.5 11.6193 13.3807 10.5 12 10.5C10.6193 10.5 9.5 11.6193 9.5 13C9.5 14.3807 10.6193 15.5 12 15.5Z" stroke="#7C7C7C" stroke-width="1.5" stroke-linecap="round" stroke-linejoin="round"/>
</svg>
