<svg width="28" height="28" viewBox="0 0 28 28" fill="none" xmlns="http://www.w3.org/2000/svg">
<path d="M14 7.51562V11.4006" stroke="black" stroke-width="1.5" stroke-miterlimit="10" stroke-linecap="round"/>
<path d="M14.0237 2.33594C9.73037 2.33594 6.2537 5.8126 6.2537 10.1059V12.5559C6.2537 13.3493 5.92704 14.5393 5.5187 15.2159L4.03704 17.6893C3.12704 19.2176 3.75704 20.9209 5.43704 21.4809C11.0137 23.3359 17.0454 23.3359 22.622 21.4809C24.197 20.9559 24.8737 19.1126 24.022 17.6893L22.5404 15.2159C22.132 14.5393 21.8054 13.3376 21.8054 12.5559V10.1059C21.7937 5.83594 18.2937 2.33594 14.0237 2.33594Z" stroke="black" stroke-width="1.5" stroke-miterlimit="10" stroke-linecap="round"/>
<path d="M17.8852 21.9531C17.8852 24.0881 16.1352 25.8381 14.0002 25.8381C12.9386 25.8381 11.9586 25.3948 11.2586 24.6948C10.5586 23.9948 10.1152 23.0148 10.1152 21.9531" stroke="black" stroke-width="1.5" stroke-miterlimit="10"/>
</svg>
