<!DOCTYPE svg PUBLIC "-//W3C//DTD SVG 1.1//EN" "http://www.w3.org/Graphics/SVG/1.1/DTD/svg11.dtd">
<!-- Uploaded to: SVG Repo, www.svgrepo.com, Transformed by: SVG Repo Mixer Tools -->
<svg width="208px" height="208px" viewBox="-3.08 -3.08 20.16 20.16" xmlns="http://www.w3.org/2000/svg" fill="#8C1823" stroke="#8C1823" stroke-width="0.7140000000000001">
<g id="SVGRepo_bgCarrier" stroke-width="0"/>
<g id="SVGRepo_tracerCarrier" stroke-linecap="round" stroke-linejoin="round"/>
<g id="SVGRepo_iconCarrier"> <g fill-rule="evenodd"> <path d="M0 7a7 7 0 1 1 14 0A7 7 0 0 1 0 7z"/> <path d="M13 7A6 6 0 1 0 1 7a6 6 0 0 0 12 0z" fill="#FFF" style="fill: var(--svg-status-bg, #fff);"/> <path d="M7 5.969L5.599 4.568a.29.29 0 0 0-.413.004l-.614.614a.294.294 0 0 0-.004.413L5.968 7l-1.4 1.401a.29.29 0 0 0 .004.413l.614.614c.113.114.3.117.413.004L7 8.032l1.401 1.4a.29.29 0 0 0 .413-.004l.614-.614a.294.294 0 0 0 .004-.413L8.032 7l1.4-1.401a.29.29 0 0 0-.004-.413l-.614-.614a.294.294 0 0 0-.413-.004L7 5.968z"/> </g> </g>
</svg>